<?xml version="1.0" encoding="utf-8"?>
<!-- Generator: Adobe Illustrator 19.0.0, SVG Export Plug-In . SVG Version: 6.00 Build 0)  -->
<svg version="1.1" id="图层_1" xmlns="http://www.w3.org/2000/svg" xmlns:xlink="http://www.w3.org/1999/xlink" x="0px" y="0px"
	 viewBox="0 0 660.5 660.5" style="enable-background:new 0 0 660.5 660.5;" xml:space="preserve">
<style type="text/css">
	.st0{fill:#FFF100;}
	.st1{fill:#E60012;}
	.st2{fill:#00913A;}
	.st3{fill:#00A0E9;}
</style>
<path id="XMLID_34_" class="st0" d="M458.2,307.5c-0.2,0-0.3,0-0.5,0c-1.7,15-1.7,30.2-0.1,45.3l0.2,1.5H354.3v-48.2h102l1.4,0.2
	c-0.1,1.2-0.1,1.2-0.1,1.2"/>
<g id="XMLID_1_">
	<path id="XMLID_60_" class="st1" d="M306.1,660.5v-49.2l0,0c85.9,7.3,174-24.7,235.5-94.3c3.9-4.4,7.5-8.8,11.1-13.3l0,0
		c13.9,8.7,28.7,15.5,44,20.5l0.7,0.3c-16.4,22.6-36,43.4-58.7,61.9c-68,55.4-151.5,79.2-232.6,73.3"/>
</g>
<g id="XMLID_8_">
	<path id="XMLID_21_" class="st2" d="M57.6,402.5H7.9l0,0c10.8,48.4,32.8,95.1,66.2,136.2c48.7,59.8,114,98.1,183.8,113.7l0,0v-49.5
		l0,0c-41.1-10.9-80.4-31.2-114.4-61.3C100.1,503.3,71.3,454.6,57.6,402.5"/>
</g>
<g id="XMLID_35_">
	<path id="XMLID_20_" d="M0.9,354.3C-6.6,250.5,34.9,144.9,121.7,74.2C263.1-41,471.1-19.7,586.3,121.7c3.8,4.7,7.5,9.5,11.1,14.4
		l0,0c-15.4,5-30.4,11.9-44.6,20.8l0,0c-10.6-13.5-22.5-26.2-35.8-38C400.2,15.7,222,26.8,118.8,143.5
		c-41.6,47.1-64.6,104.2-69.6,162.3l0,0h256.9V354v0.3v129.9l-1-0.2c48.8,7.9,100.6-7.5,137.5-45.8c10.6-11.1,19.3-23.3,26.1-36.3
		l0.9,0.5c6.1,16.1,14.3,31.6,24.7,46.2l1.1,1.5c-9.2,12.7-20,24.5-32.5,35.1c-85.6,73.3-214.5,63.2-287.8-22.4
		c-15.8-18.4-27.7-38.8-35.8-60.3v-0.1h53.4l-1.4-1.4c7.7,15,17.9,29.1,30.8,41.4c10.9,10.5,23,19.1,35.8,25.8l0,0V354.3l0-0.3H0"/>
</g>
<g id="XMLID_33_">
	<path id="XMLID_11_" class="st3" d="M192.8,257c0,0-53.1,0-53.1,0c11.8-30.7,31.1-59,57.9-81.9c85.6-73.3,214.5-63.2,287.8,22.4
		c3.5,4.1,6.9,8.4,10,12.7l0,0c-10.7,14.7-19.3,30.6-25.6,47.2l-1.2,0.6c-7.6-14.6-17.7-28.2-30.2-40.3
		c-62.1-59.7-160.7-57.8-220.4,4.3c-10.2,10.6-18.7,22.4-25.3,34.8"/>
</g>
</svg>
